[Header]
FileType HTR
DataType HTRS
FileVersion 1
NumSegments 64
NumFrames 3
DataFrameRate 30
EulerRotationOrder ZYX
CalibrationUnits mm
RotationUnits Degrees
GlobalAxisofGravity Y
BoneLengthAxis Y
ScaleFactor 1.0
[SegmentNames&Hierarchy]
Hips	GLOBAL
Spine	Hips
Spine1	Spine
Spine2	Spine1
Neck	Spine2
Head	Neck
LeftEye	Head
RightEye	Head
LeftShoulder	Spine2
LeftArm	LeftShoulder
LeftForeArm	LeftArm
LeftHand	LeftForeArm
LeftHandThumb1	LeftHand
LeftHandThumb2	LeftHandThumb1
LeftHandThumb3	LeftHandThumb2
LeftHandThumb4	LeftHandThumb3
LeftHandIndex1	LeftHand
LeftHandIndex2	LeftHandIndex1
LeftHandIndex3	LeftHandIndex2
LeftHandIndex4	LeftHandIndex3
LeftHandMiddle1	LeftHand
LeftHandMiddle2	LeftHandMiddle1
LeftHandMiddle3	LeftHandMiddle2
LeftHandMiddle4	LeftHandMiddle3
LeftHandRing1	LeftHand
LeftHandRing2	LeftHandRing1
LeftHandRing3	LeftHandRing2
LeftHandRing4	LeftHandRing3
LeftHandPinky1	LeftHand
LeftHandPinky2	LeftHandPinky1
LeftHandPinky3	LeftHandPinky2
LeftHandPinky4	LeftHandPinky3
RightShoulder	Spine2
RightArm	RightShoulder
RightForeArm	RightArm
RightHand	RightForeArm
RightHandPinky1	RightHand
RightHandPinky2	RightHandPinky1
RightHandPinky3	RightHandPinky2
RightHandPinky4	RightHandPinky3
RightHandRing1	RightHand
RightHandRing2	RightHandRing1
RightHandRing3	RightHandRing2
RightHandRing4	RightHandRing3
RightHandMiddle1	RightHand
RightHandMiddle2	RightHandMiddle1
RightHandMiddle3	RightHandMiddle2
RightHandMiddle4	RightHandMiddle3
RightHandIndex1	RightHand
RightHandIndex2	RightHandIndex1
RightHandIndex3	RightHandIndex2
RightHandIndex4	RightHandIndex3
RightHandThumb1	RightHand
RightHandThumb2	RightHandThumb1
RightHandThumb3	RightHandThumb2
RightHandThumb4	RightHandThumb3
LeftUpLeg	Hips
LeftLeg	LeftUpLeg
LeftFoot	LeftLeg
LeftToeBase	LeftFoot
RightUpLeg	Hips
RightLeg	RightUpLeg
RightFoot	RightLeg
RightToeBase	RightFoot
[BasePosition]
Hips	0	0	0	0	0	0	1
Spine	0	0	0	0	0	0	1
Spine1	0	0	0	0	0	0	1
Spine2	0	0	0	0	0	0	1
Neck	0	0	0	0	0	0	1
Head	0	0	0	0	0	0	1
LeftEye	0	0	0	0	0	0	1
RightEye	0	0	0	0	0	0	1
LeftShoulder	0	0	0	0	0	0	1
LeftArm	0	0	0	0	0	0	1
LeftForeArm	0	0	0	0	0	0	1
LeftHand	0	0	0	0	0	0	1
LeftHandThumb1	0	0	0	0	0	0	1
LeftHandThumb2	0	0	0	0	0	0	1
LeftHandThumb3	0	0	0	0	0	0	1
LeftHandThumb4	0	0	0	0	0	0	1
LeftHandIndex1	0	0	0	0	0	0	1
LeftHandIndex2	0	0	0	0	0	0	1
LeftHandIndex3	0	0	0	0	0	0	1
LeftHandIndex4	0	0	0	0	0	0	1
LeftHandMiddle1	0	0	0	0	0	0	1
LeftHandMiddle2	0	0	0	0	0	0	1
LeftHandMiddle3	0	0	0	0	0	0	1
LeftHandMiddle4	0	0	0	0	0	0	1
LeftHandRing1	0	0	0	0	0	0	1
LeftHandRing2	0	0	0	0	0	0	1
LeftHandRing3	0	0	0	0	0	0	1
LeftHandRing4	0	0	0	0	0	0	1
LeftHandPinky1	0	0	0	0	0	0	1
LeftHandPinky2	0	0	0	0	0	0	1
LeftHandPinky3	0	0	0	0	0	0	1
LeftHandPinky4	0	0	0	0	0	0	1
RightShoulder	0	0	0	0	0	0	1
RightArm	0	0	0	0	0	0	1
RightForeArm	0	0	0	0	0	0	1
RightHand	0	0	0	0	0	0	1
RightHandPinky1	0	0	0	0	0	0	1
RightHandPinky2	0	0	0	0	0	0	1
RightHandPinky3	0	0	0	0	0	0	1
RightHandPinky4	0	0	0	0	0	0	1
RightHandRing1	0	0	0	0	0	0	1
RightHandRing2	0	0	0	0	0	0	1
RightHandRing3	0	0	0	0	0	0	1
RightHandRing4	0	0	0	0	0	0	1
RightHandMiddle1	0	0	0	0	0	0	1
RightHandMiddle2	0	0	0	0	0	0	1
RightHandMiddle3	0	0	0	0	0	0	1
RightHandMiddle4	0	0	0	0	0	0	1
RightHandIndex1	0	0	0	0	0	0	1
RightHandIndex2	0	0	0	0	0	0	1
RightHandIndex3	0	0	0	0	0	0	1
RightHandIndex4	0	0	0	0	0	0	1
RightHandThumb1	0	0	0	0	0	0	1
RightHandThumb2	0	0	0	0	0	0	1
RightHandThumb3	0	0	0	0	0	0	1
RightHandThumb4	0	0	0	0	0	0	1
LeftUpLeg	0	0	0	0	0	0	1
LeftLeg	0	0	0	0	0	0	1
LeftFoot	0	0	0	0	0	0	1
LeftToeBase	0	0	0	0	0	0	1
RightUpLeg	0	0	0	0	0	0	1
RightLeg	0	0	0	0	0	0	1
RightFoot	0	0	0	0	0	0	1
RightToeBase	0	0	0	0	0	0	1
[Hips]
12	112.8789978	1017.650513	-43.8571167	-1.796419144	-21.96214104	-3.745164633	1.0
13	108.1848145	1017.739563	-52.85898209	-1.839313626	-25.48970985	-4.114236355	1.0
14	103.3142242	1016.69812	-62.2148819	-1.747445941	-29.60256577	-4.59268713	1.0
[Spine]
12	0	101.8159943	1.315000057	2.853753328	-0.7409864664	3.279966116	1.0
13	0	101.8159943	1.315000057	2.754884481	-0.8635838628	3.248601437	1.0
14	0	101.8159943	1.315000057	2.795599699	-0.740036428	3.237675905	1.0
[Spine1]
12	0	100.8349991	-10.00800037	0.8107186556	-1.63558495	-1.687162638	1.0
13	0	100.8349991	-10.00800037	0.728479147	-1.763945818	-2.009869099	1.0
14	0	100.8349991	-10.00800037	0.7529991865	-1.684265375	-2.310408354	1.0
[Spine2]
12	0	91	-13.73399925	0.6820459962	-1.340504289	1.422307372	1.0
13	0	91	-13.73399925	0.5835223198	-1.430443645	1.420456767	1.0
14	0	91	-13.73399925	0.6043224931	-1.32260561	1.401245832	1.0
[Neck]
12	0	166.7169952	-25.16200066	7.956258774	-9.252146721	2.351352453	1.0
13	0	166.7169952	-25.16200066	7.951868057	-8.93239975	2.351876736	1.0
14	0	166.7169952	-25.16200066	7.833540916	-8.523611069	2.251583576	1.0
[Head]
12	0	96.17900085	16.84999847	-2.593294859	-24.08393478	9.017897606	1.0
13	0	96.17900085	16.84999847	-2.54684186	-23.91325188	9.170237541	1.0
14	0	96.17900085	16.84999847	-2.552586555	-23.71555519	9.270559311	1.0
[LeftEye]
12	30.6760006	64.09500122	92.83599854	0	0	0	1.0
13	30.6760006	64.09500122	92.83599854	0	0	0	1.0
14	30.6760006	64.09500122	92.83599854	0	0	0	1.0
[RightEye]
12	-30.6760006	64.09500122	92.83499908	0	0	0	1.0
13	-30.6760006	64.09500122	92.83499908	0	0	0	1.0
14	-30.6760006	64.09500122	92.83499908	0	0	0	1.0
[LeftShoulder]
12	45.70400238	109.4599991	-26.28000069	4.635475159	-16.00679779	-12.74850273	1.0
13	45.70400238	109.4599991	-26.28000069	4.61552906	-16.41851044	-12.75821304	1.0
14	45.70400238	109.4599991	-26.28000069	4.629048824	-17.07117462	-12.8487854	1.0
[LeftArm]
12	105.923996	-5.24600029	-22.32099915	17.59996414	4.855393887	-62.38619232	1.0
13	105.923996	-5.24600029	-22.32099915	16.738554	5.252231598	-61.60738373	1.0
14	105.923996	-5.24600029	-22.32099915	15.64852333	5.355460167	-60.75878906	1.0
[LeftForeArm]
12	278.414978	-0.0009999999311	0	1.018182684e-05	-8.865412712	-0.0002121770667	1.0
13	278.414978	-0.0009999999311	0	8.079765394e-06	-9.058382034	-0.0002045849396	1.0
14	278.414978	-0.0009999999311	0	4.502327556e-06	-9.118202209	-0.0002022090048	1.0
[LeftHand]
12	283.2879944	0	0	-30.40622711	4.954278469	0.03863634914	1.0
13	283.2879944	0	0	-28.94948769	6.057495117	0.4553264081	1.0
14	283.2879944	0	0	-27.74137115	7.131597042	0.6638303995	1.0
[LeftHandThumb1]
12	24.6609993	-15.75	26.8239994	-0.4889863729	2.201392412	4.818544865	1.0
13	24.6609993	-15.75	26.8239994	-0.4889863729	2.201392412	4.818544865	1.0
14	24.6609993	-15.75	26.8239994	-0.4889863729	2.201392412	4.818544865	1.0
[LeftHandThumb2]
12	32.29800034	-18.64699936	18.64699936	19.91002655	19.2702179	22.93141365	1.0
13	32.29800034	-18.64699936	18.64699936	19.9336586	19.30587959	22.99554634	1.0
14	32.29800034	-18.64699936	18.64699936	20.08745766	18.76738167	22.81969261	1.0
[LeftHandThumb3]
12	26.52600098	-15.31499958	15.31499958	-13.15828705	5.521267891	7.972422123	1.0
13	26.52600098	-15.31499958	15.31499958	-13.15326214	5.535344601	7.971574306	1.0
14	26.52600098	-15.31499958	15.31499958	-13.16671371	5.502874851	7.98300457	1.0
[LeftHandThumb4]
12	19.54599953	-11.28499985	11.28499985	0	0	0	1.0
13	19.54599953	-11.28499985	11.28499985	0	0	0	1.0
14	19.54599953	-11.28499985	11.28499985	0	0	0	1.0
[LeftHandIndex1]
12	91.09299469	-5.170999527	22.60099792	0.09385701269	-0.9160113335	-8.325610161	1.0
13	91.09299469	-5.170999527	22.60099792	0.1240964532	-0.8798734546	-8.231249809	1.0
14	91.09299469	-5.170999527	22.60099792	0.1181135327	-0.9787192345	-7.784002304	1.0
[LeftHandIndex2]
12	36.76399994	0	0	-0.2652642131	1.740544677	-17.32897758	1.0
13	36.76399994	0	0	-0.2676412165	1.748174429	-17.40730667	1.0
14	36.76399994	0	0	-0.2661865652	1.743509769	-17.35934067	1.0
[LeftHandIndex3]
12	28.83100128	0	0	-0.05675119534	0.8125452995	-7.990883827	1.0
13	28.83100128	0	0	-0.0578677319	0.8204419017	-8.069173813	1.0
14	28.83100128	0	0	-0.05719305575	0.8155987263	-8.021247864	1.0
[LeftHandIndex4]
12	23.92700005	0	0	0	0	0	1.0
13	23.92700005	0	0	0	0	0	1.0
14	23.92700005	0	0	0	0	0	1.0
[LeftHandMiddle1]
12	95.33399963	0	0	-0.8040576577	2.681700706	-15.85806751	1.0
13	95.33399963	0	0	-0.7883589268	2.650755167	-15.62612343	1.0
14	95.33399963	0	0	-0.7997595668	2.72375989	-15.79254723	1.0
[LeftHandMiddle2]
12	36.98199844	0	0	-0.2701905072	1.756291509	-17.49089622	1.0
13	36.98199844	0	0	-0.2692097127	1.753166914	-17.45874023	1.0
14	36.98199844	0	0	-0.2700809836	1.755908132	-17.48691368	1.0
[LeftHandMiddle3]
12	29.50900078	0	0	-0.3019298315	1.853919864	-18.49797058	1.0
13	29.50900078	0	0	-0.3008837104	1.850811481	-18.46586227	1.0
14	29.50900078	0	0	-0.3017831147	1.853515983	-18.49380875	1.0
[LeftHandMiddle4]
12	28.3390007	0	0	0	0	0	1.0
13	28.3390007	0	0	0	0	0	1.0
14	28.3390007	0	0	0	0	0	1.0
[LeftHandRing1]
12	91.04499817	-0.4390000105	-18.65100098	-1.223972321	3.278104067	-21.68413353	1.0
13	91.04499817	-0.4390000105	-18.65100098	-1.21000278	3.307397127	-21.50020027	1.0
14	91.04499817	-0.4390000105	-18.65100098	-1.233258009	3.259200335	-21.80498314	1.0
[LeftHandRing2]
12	31.54000092	0	0	-0.3844890594	2.084373474	-20.90038872	1.0
13	31.54000092	0	0	-0.3834369779	2.081631899	-20.87149811	1.0
14	31.54000092	0	0	-0.3836613297	2.082237959	-20.87777901	1.0
[LeftHandRing3]
12	29.37700081	0	0	-0.2814277709	1.791534901	-17.85360336	1.0
13	29.37700081	0	0	-0.2805239856	1.788720131	-17.82466507	1.0
14	29.37700081	0	0	-0.2807221115	1.789344311	-17.83109856	1.0
[LeftHandRing4]
12	26.47500038	0	0	0	0	0	1.0
13	26.47500038	0	0	0	0	0	1.0
14	26.47500038	0	0	0	0	0	1.0
[LeftHandPinky1]
12	80.77799988	-4.887000084	-38.06099701	-1.841361642	4.850163937	-27.63528061	1.0
13	80.77799988	-4.887000084	-38.06099701	-1.785744667	5.056153297	-27.42912102	1.0
14	80.77799988	-4.887000084	-38.06099701	-1.85453701	4.860108852	-27.78295708	1.0
[LeftHandPinky2]
12	36	0	0	-0.2712582648	1.759682417	-17.5256443	1.0
13	36	0	0	-0.2708727717	1.758454084	-17.51304626	1.0
14	36	0	0	-0.2706464827	1.757718801	-17.50551224	1.0
[LeftHandPinky3]
12	21.14200211	0	0	-0.2439768463	1.670851588	-16.61400032	1.0
13	21.14200211	0	0	-0.2437535673	1.670099497	-16.60632133	1.0
14	21.14200211	0	0	-0.2433795482	1.668854952	-16.59365654	1.0
[LeftHandPinky4]
12	19.75699997	0	0	0	0	0	1.0
13	19.75699997	0	0	0	0	0	1.0
14	19.75699997	0	0	0	0	0	1.0
[RightShoulder]
12	-45.70000076	109.4620056	-26.28000069	4.965564728	14.08987808	14.95086479	1.0
13	-45.70000076	109.4620056	-26.28000069	4.881436348	14.25938511	14.86748981	1.0
14	-45.70000076	109.4620056	-26.28000069	4.754339695	14.43582916	14.65808582	1.0
[RightArm]
12	-105.9280014	-5.248000145	-22.32099915	-22.46205711	-12.31581497	65.5150528	1.0
13	-105.9280014	-5.248000145	-22.32099915	-26.09559059	-13.26974583	67.25803375	1.0
14	-105.9280014	-5.248000145	-22.32099915	-28.76113892	-13.62815571	68.9120636	1.0
[RightForeArm]
12	-278.414978	0	0	6.108460184e-06	25.85967064	-7.665663588e-07	1.0
13	-278.414978	0	0	-7.970065496e-08	25.35032845	3.804952485e-06	1.0
14	-278.414978	0	0	-3.687347089e-06	24.33740616	-1.099580641e-05	1.0
[RightHand]
12	-283.2879944	0	0.0009999999311	29.40811539	18.96936607	7.209460735	1.0
13	-283.2879944	0	0.0009999999311	32.18596268	18.27195358	8.594908714	1.0
14	-283.2879944	0	0.0009999999311	33.91034317	16.92376328	9.392533302	1.0
[RightHandPinky1]
12	-80.76699829	-4.885000229	-38.06000137	-1.488992333	-5.420041561	26.85548019	1.0
13	-80.76699829	-4.885000229	-38.06000137	-1.465983987	-5.679720879	26.56950188	1.0
14	-80.76699829	-4.885000229	-38.06000137	-1.443609595	-5.740763187	26.28492546	1.0
[RightHandPinky2]
12	-36	0	0.0009999999311	-0.2117723674	-1.385713577	17.39705276	1.0
13	-36	0	0.0009999999311	-0.2119890004	-1.386411786	17.40600395	1.0
14	-36	0	0.0009999999311	-0.2113178968	-1.384259939	17.37811089	1.0
[RightHandPinky3]
12	-21.14200211	0	0	-0.1910613179	-1.317723513	16.49926376	1.0
13	-21.14200211	0	0	-0.1913078874	-1.318550229	16.50997925	1.0
14	-21.14200211	0	0	-0.1906815171	-1.316433191	16.4827404	1.0
[RightHandPinky4]
12	-19.75699997	0	0	0	0	0	1.0
13	-19.75699997	0	0	0	0	0	1.0
14	-19.75699997	0	0	0	0	0	1.0
[RightHandRing1]
12	-91.03599548	-0.4390000105	-18.65100098	-1.103648663	-3.083799124	21.35663986	1.0
13	-91.03599548	-0.4390000105	-18.65100098	-1.092892766	-2.966664553	21.19700432	1.0
14	-91.03599548	-0.4390000105	-18.65100098	-1.077424169	-2.843211412	20.96581841	1.0
[RightHandRing2]
12	-31.54000092	0	0	-0.3071302474	-1.659906626	20.9645443	1.0
13	-31.54000092	0	0	-0.3064954579	-1.658245921	20.94255066	1.0
14	-31.54000092	0	0	-0.3049640954	-1.654235363	20.88952827	1.0
[RightHandRing3]
12	-29.37700081	0	0	-0.2249096632	-1.426983714	17.91241646	1.0
13	-29.37700081	0	0	-0.2243697643	-1.425326943	17.89089584	1.0
14	-29.37700081	0	0	-0.2230677009	-1.42128861	17.8384304	1.0
[RightHandRing4]
12	-26.47500038	0	0	0	0	0	1.0
13	-26.47500038	0	0	0	0	0	1.0
14	-26.47500038	0	0	0	0	0	1.0
[RightHandMiddle1]
12	-95.32500458	0	0	-0.7673989534	-2.775492191	16.09281921	1.0
13	-95.32500458	0	0	-0.7545061707	-2.869307995	15.87936497	1.0
14	-95.32500458	0	0	-0.7426201105	-2.959741354	15.68169117	1.0
[RightHandMiddle2]
12	-36.98199844	0	0	-0.2149637043	-1.395856023	17.50868988	1.0
13	-36.98199844	0	0	-0.2149906009	-1.395945072	17.50987434	1.0
14	-36.98199844	0	0	-0.2147590369	-1.395215154	17.50039864	1.0
[RightHandMiddle3]
12	-29.50900078	0	0	-0.2401897162	-1.47542429	18.51613235	1.0
13	-29.50900078	0	0	-0.2402182072	-1.475514293	18.51728821	1.0
14	-29.50900078	0	0	-0.2399730533	-1.474789023	18.50779915	1.0
[RightHandMiddle4]
12	-28.3390007	0	0.0009999999311	0	0	0	1.0
13	-28.3390007	0	0.0009999999311	0	0	0	1.0
14	-28.3390007	0	0.0009999999311	0	0	0	1.0
[RightHandIndex1]
12	-91.08300018	-5.167999744	22.60099792	0.2574589252	0.8976669312	7.908579826	1.0
13	-91.08300018	-5.167999744	22.60099792	0.197386235	1.070085526	7.677079678	1.0
14	-91.08300018	-5.167999744	22.60099792	0.1818303466	1.147484064	7.440202236	1.0
[RightHandIndex2]
12	-36.76399994	0	0	-0.2129423618	-1.389440536	17.42551994	1.0
13	-36.76399994	0	0	-0.2127957195	-1.38898015	17.41955185	1.0
14	-36.76399994	0	0	-0.2127245516	-1.388749838	17.41662788	1.0
[RightHandIndex3]
12	-28.83100128	0	0	-0.04596847296	-0.6515458822	8.071391106	1.0
13	-28.83100128	0	0	-0.04589859396	-0.6510720849	8.065422058	1.0
14	-28.83100128	0	0	-0.04586594179	-0.6508376598	8.0625	1.0
[RightHandIndex4]
12	-23.92700005	0	0	0	0	0	1.0
13	-23.92700005	0	0	0	0	0	1.0
14	-23.92700005	0	0	0	0	0	1.0
[RightHandThumb1]
12	-24.64799881	-15.72700024	26.82600021	-1.658462644	-0.289145112	-4.221315384	1.0
13	-24.64799881	-15.72700024	26.82600021	-1.658462644	-0.289145112	-4.221315384	1.0
14	-24.64799881	-15.72700024	26.82600021	-1.658462644	-0.289145112	-4.221315384	1.0
[RightHandThumb2]
12	-32.29800034	-18.64699936	18.64699936	22.97979927	-22.70167732	-24.04418564	1.0
13	-32.29800034	-18.64699936	18.64699936	22.61137581	-21.74291039	-23.59736443	1.0
14	-32.29800034	-18.64699936	18.64699936	22.19400406	-20.61990738	-23.08881378	1.0
[RightHandThumb3]
12	-26.52600098	-15.31399918	15.31399918	-13.4338398	-5.163852692	-12.01005936	1.0
13	-26.52600098	-15.31399918	15.31399918	-13.70824337	-5.570250988	-11.72133923	1.0
14	-26.52600098	-15.31399918	15.31399918	-13.8724556	-5.887761116	-11.46284676	1.0
[RightHandThumb4]
12	-19.54599953	-11.28499985	11.28499985	0	0	0	1.0
13	-19.54599953	-11.28499985	11.28499985	0	0	0	1.0
14	-19.54599953	-11.28499985	11.28499985	0	0	0	1.0
[LeftUpLeg]
12	82.07800293	-67.51699829	-15.99599934	-15.92772675	15.54696751	2.175961494	1.0
13	82.07800293	-67.51699829	-15.99599934	-16.56887627	19.14520836	3.632986069	1.0
14	82.07800293	-67.51699829	-15.99599934	-18.43255615	24.22377014	5.496400833	1.0
[LeftLeg]
12	0	-443.7049866	2.845999956	25.54318619	6.892250061	8.792764664	1.0
13	0	-443.7049866	2.845999956	27.32043457	4.40356636	6.529016495	1.0
14	0	-443.7049866	2.845999956	31.80604172	-0.5884506106	1.736120582	1.0
[LeftFoot]
12	0	-444.2789917	-29.8219986	-6.654675961	22.39416504	-6.563562393	1.0
13	0	-444.2789917	-29.8219986	-6.888331413	22.76549911	-5.210104465	1.0
14	0	-444.2789917	-29.8219986	-6.04784441	22.29033089	-0.6365144253	1.0
[LeftToeBase]
12	0	-87.28699493	107.1060028	-4.854332447	-1.614880489e-06	3.671972593e-07	1.0
13	0	-87.28699493	107.1060028	-5.595678806	-1.188666101e-05	-5.121789286e-07	1.0
14	0	-87.28699493	107.1060028	-6.495708466	0.007762761321	0.08580163866	1.0
[RightUpLeg]
12	-82.07800293	-67.51699829	-15.99599934	-6.158721447	-20.52461243	-3.962188005	1.0
13	-82.07800293	-67.51699829	-15.99599934	-6.036824703	-22.40370369	-2.967903614	1.0
14	-82.07800293	-67.51699829	-15.99599934	-6.223351955	-24.1275425	-2.02576685	1.0
[RightLeg]
12	0	-443.7049866	2.861999989	27.13858032	-13.52404308	4.311762333	1.0
13	0	-443.7049866	2.861999989	25.10763931	-13.44599438	4.94609642	1.0
14	0	-443.7049866	2.861999989	23.7368927	-12.63675213	5.682514191	1.0
[RightFoot]
12	0	-444.2770081	-29.83799934	-12.00024509	-29.04117203	8.198829651	1.0
13	0	-444.2770081	-29.83799934	-12.34865284	-29.84570313	4.352507114	1.0
14	0	-444.2770081	-29.83799934	-11.82945633	-30.48954773	1.280521393	1.0
[RightToeBase]
12	0	-87.28699493	107.1060028	-10.62143803	6.522612694e-06	4.460034688e-07	1.0
13	0	-87.28699493	107.1060028	-9.385974884	-1.128299118e-06	2.025743242e-06	1.0
14	0	-87.28699493	107.1060028	-9.008654594	4.859984074e-06	2.255087338e-06	1.0
[EndOfFile]
